<?xml version="1.0" standalone="no"?>
<!DOCTYPE svg PUBLIC "-//W3C//DTD SVG 20010904//EN"
 "http://www.w3.org/TR/2001/REC-SVG-20010904/DTD/svg10.dtd">
<svg version="1.0" xmlns="http://www.w3.org/2000/svg"
 width="752.000000pt" height="376.000000pt" viewBox="0 0 752.000000 376.000000"
 preserveAspectRatio="xMidYMid meet">

<g transform="translate(0.000000,376.000000) scale(0.100000,-0.100000)"
fill="#000000" stroke="none">
<path d="M0 1880 l0 -1880 3760 0 3760 0 0 1880 0 1880 -3760 0 -3760 0 0
-1880z m2750 452 c59 -30 105 -85 116 -139 6 -33 6 -33 -33 -33 -36 0 -41 3
-57 40 -21 48 -58 76 -117 89 -85 19 -166 -16 -214 -94 -28 -45 -30 -55 -30
-149 0 -86 4 -108 24 -149 31 -65 85 -100 160 -105 99 -7 170 43 189 134 8 37
9 39 47 39 38 0 40 -1 37 -30 -6 -57 -48 -132 -93 -164 -56 -41 -109 -54 -196
-49 -90 6 -153 41 -200 112 -43 63 -53 103 -53 208 0 140 53 243 152 294 74
38 185 36 268 -4z m2339 -10 c45 -22 71 -59 78 -110 8 -56 -2 -85 -39 -123
-25 -25 -29 -34 -18 -37 33 -11 78 -68 84 -109 19 -112 -57 -205 -182 -220
-116 -13 -207 51 -227 160 l-7 37 41 0 c35 0 41 -3 41 -20 0 -67 64 -115 142
-108 163 16 150 228 -14 228 -46 0 -48 1 -48 29 0 26 3 29 47 35 66 9 103 46
103 101 0 61 -34 90 -107 90 -47 0 -58 -4 -78 -28 -13 -15 -27 -43 -31 -62 -6
-33 -9 -35 -44 -35 l-37 0 7 39 c14 77 64 135 131 151 44 11 115 3 158 -18z
m-889 -77 l0 -65 46 0 c45 0 45 0 42 -32 -3 -31 -6 -33 -46 -36 l-43 -3 3
-152 3 -152 43 -3 c42 -3 43 -4 40 -35 -3 -29 -7 -32 -38 -35 -19 -2 -51 1
-72 7 -50 15 -58 45 -58 222 l0 149 -35 0 c-33 0 -35 2 -35 35 0 33 2 35 35
35 l35 0 0 65 0 65 40 0 40 0 0 -65z m-962 -70 c1 -1 31 -82 66 -181 56 -155
66 -176 74 -154 5 14 33 96 63 182 l54 158 38 0 c20 0 37 -2 37 -4 0 -14 -211
-552 -225 -573 -21 -32 -79 -56 -116 -48 -25 6 -29 11 -29 39 0 31 2 32 30 28
39 -6 64 16 85 72 l16 42 -76 191 -76 190 -39 -7 c-101 -18 -123 -60 -128
-242 l-4 -138 -34 0 -34 0 0 225 0 225 35 0 c34 0 35 -1 35 -42 l0 -43 27 34
c37 47 76 62 143 55 30 -4 56 -7 58 -9z m677 -4 c81 -37 118 -106 118 -218 -1
-89 -28 -152 -85 -193 -68 -49 -169 -49 -231 0 l-26 21 -3 -108 -3 -108 -37
-3 -38 -3 0 310 0 311 40 0 c36 0 40 -3 40 -25 l0 -24 26 24 c41 38 134 46
199 16z m721 -6 c77 -39 114 -107 114 -211 0 -127 -71 -215 -185 -229 -99 -13
-188 35 -226 120 -29 63 -26 168 7 233 38 77 94 110 190 111 35 1 65 -7 100
-24z m864 -865 l0 -140 865 0 865 0 0 -145 0 -145 -865 0 -864 0 -3 142 -3
142 -1732 0 -1733 0 0 143 0 143 1735 0 1735 0 0 -140z m-3470 -575 l0 -145
-870 0 -870 0 0 145 0 145 870 0 870 0 0 -145z"/>
<path d="M3752 2106 c-80 -44 -93 -200 -23 -278 23 -26 37 -32 83 -36 50 -4
58 -2 91 27 73 64 73 207 1 271 -28 24 -43 30 -82 30 -26 -1 -57 -6 -70 -14z"/>
<path d="M4451 2091 c-39 -37 -51 -69 -51 -137 0 -100 53 -164 135 -164 80 0
135 67 135 164 0 65 -25 124 -64 149 -15 10 -46 17 -75 17 -40 0 -54 -5 -80
-29z"/>
</g>
</svg>
