<?xml version="1.0" standalone="no"?>
<!DOCTYPE svg PUBLIC "-//W3C//DTD SVG 20010904//EN"
 "http://www.w3.org/TR/2001/REC-SVG-20010904/DTD/svg10.dtd">
<svg version="1.0" xmlns="http://www.w3.org/2000/svg"
 width="752.000000pt" height="376.000000pt" viewBox="0 0 752.000000 376.000000"
 preserveAspectRatio="xMidYMid meet">

<g transform="translate(0.000000,376.000000) scale(0.100000,-0.100000)"
fill="#000000" stroke="none">
<path d="M0 1880 l0 -1880 3760 0 3760 0 0 1880 0 1880 -3760 0 -3760 0 0
-1880z m3354 604 c9 -4 16 -18 16 -34 0 -27 -3 -29 -42 -32 l-43 -3 -3 -47 -3
-47 38 -3 c35 -3 38 -6 41 -35 3 -32 2 -33 -37 -33 l-41 0 -2 -182 -3 -183
-35 0 -35 0 -3 183 -2 182 -36 0 c-34 0 -35 1 -32 33 3 28 7 32 36 35 29 3 32
6 32 38 0 55 25 103 62 119 36 15 67 18 92 9z m-1477 -25 c62 -30 86 -81 81
-168 -2 -48 -10 -75 -26 -97 -37 -53 -75 -64 -211 -64 l-121 0 0 -125 0 -125
-40 0 -40 0 0 300 0 300 157 0 c139 0 162 -2 200 -21z m373 -168 c0 -37 -2
-39 -37 -44 -93 -15 -116 -60 -121 -234 l-4 -133 -34 0 -34 0 2 218 3 217 30
0 c28 0 30 -3 33 -39 l3 -39 27 32 c24 28 85 59 120 61 7 0 12 -14 12 -39z
m251 28 c208 -45 213 -384 7 -439 -91 -25 -194 15 -237 90 -28 51 -38 146 -22
208 17 60 72 119 130 136 58 18 59 18 122 5z m508 -17 c76 -35 123 -154 101
-254 -14 -68 -43 -113 -93 -146 -35 -23 -51 -27 -113 -27 -64 0 -77 3 -115 30
-24 17 -51 45 -62 62 -42 72 -38 205 8 274 53 81 174 108 274 61z m718 -44 c5
-7 50 -120 98 -250 49 -131 90 -236 92 -234 3 2 46 114 96 248 l92 243 53 3
52 3 0 -300 0 -301 -35 0 -35 0 -2 243 -3 242 -90 -240 -91 -240 -36 -3 -36
-3 -31 81 c-17 45 -56 150 -87 233 -31 84 -61 156 -65 162 -5 5 -9 -97 -9
-233 l0 -242 -35 0 -35 0 0 300 0 300 49 0 c27 0 53 -6 58 -12z m1333 -163 c0
-96 3 -175 7 -175 4 0 48 41 99 90 90 89 92 90 140 90 l49 -1 -85 -78 -85 -79
88 -131 c48 -72 87 -133 87 -136 0 -3 -19 -5 -42 -5 l-43 0 -70 108 c-38 59
-71 109 -72 111 -2 3 -19 -11 -38 -29 -34 -33 -35 -36 -35 -112 l0 -78 -35 0
-35 0 0 293 c0 162 3 297 7 300 3 4 19 7 35 7 l28 0 0 -175z m860 70 l0 -65
45 0 c43 0 45 -1 45 -30 0 -29 -2 -30 -45 -30 l-46 0 3 -152 3 -153 43 -3 c39
-3 42 -5 42 -33 0 -29 0 -29 -60 -29 -97 0 -100 6 -100 205 l0 165 -35 0 c-32
0 -35 2 -35 30 0 28 3 30 35 30 l35 0 0 65 0 65 35 0 35 0 0 -65z m-1340 -71
c62 -25 70 -49 70 -219 0 -138 1 -147 20 -152 14 -4 20 -14 20 -34 0 -27 -3
-29 -40 -29 -34 0 -43 5 -59 30 -18 30 -18 30 -36 10 -26 -29 -80 -43 -148
-38 -52 4 -64 9 -88 36 -24 26 -29 42 -29 81 0 87 39 115 193 142 71 12 97 28
97 60 0 50 -83 82 -147 58 -35 -14 -46 -25 -57 -61 -6 -20 -60 -25 -71 -8 -3
5 3 30 14 55 16 36 29 50 63 65 53 24 143 26 198 4z m380 -24 c0 -38 -2 -40
-31 -40 -17 0 -44 -8 -60 -17 -49 -29 -62 -73 -67 -215 l-4 -128 -34 0 -34 0
0 215 0 215 35 0 c34 0 35 -1 35 -42 l0 -43 27 34 c28 35 73 60 111 61 19 0
22 -5 22 -40z m693 26 c68 -28 117 -111 117 -198 l0 -38 -160 0 c-159 0 -160
0 -160 -22 0 -34 35 -85 71 -104 43 -22 112 -14 145 17 13 12 24 28 24 36 0 9
13 13 40 13 38 0 39 -1 30 -25 -30 -80 -86 -115 -181 -115 -48 0 -72 6 -104
24 -117 69 -136 277 -33 373 53 50 145 67 211 39z m-2283 -651 l0 -145 1355 0
1355 0 0 -145 0 -145 575 0 575 0 0 -145 0 -145 -575 0 -575 0 0 145 0 145
-1355 0 -1355 0 0 145 0 145 -962 2 -963 3 -3 143 -3 142 966 0 965 0 0 -145z
m-1930 -580 l0 -145 -575 0 -575 0 0 145 0 145 575 0 575 0 0 -145z"/>
<path d="M1600 2301 l0 -111 83 0 c146 0 197 29 197 111 0 36 -6 55 -24 76
-24 27 -27 28 -140 31 l-116 4 0 -111z"/>
<path d="M2382 2240 c-42 -26 -62 -73 -62 -145 0 -98 48 -155 130 -155 53 0
91 23 115 70 20 39 19 133 -2 177 -32 69 -115 93 -181 53z"/>
<path d="M2825 2229 c-59 -52 -71 -160 -25 -234 51 -83 179 -72 221 18 52 116
-10 247 -116 247 -35 0 -52 -6 -80 -31z"/>
<path d="M4555 1880 c-11 -4 -45 -11 -75 -15 -88 -12 -120 -35 -120 -85 0 -28
47 -60 87 -60 81 0 137 55 131 129 -3 34 -5 38 -23 31z"/>
<path d="M5520 2032 c-32 -16 -81 -84 -69 -96 2 -3 58 -6 124 -7 120 -1 120
-1 117 22 -6 35 -30 66 -67 83 -42 20 -62 20 -105 -2z"/>
</g>
</svg>
