<?xml version="1.0" standalone="no"?>
<!DOCTYPE svg PUBLIC "-//W3C//DTD SVG 20010904//EN"
 "http://www.w3.org/TR/2001/REC-SVG-20010904/DTD/svg10.dtd">
<svg version="1.0" xmlns="http://www.w3.org/2000/svg"
 width="752.000000pt" height="376.000000pt" viewBox="0 0 752.000000 376.000000"
 preserveAspectRatio="xMidYMid meet">

<g transform="translate(0.000000,376.000000) scale(0.100000,-0.100000)"
fill="#000000" stroke="none">
<path d="M0 1880 l0 -1880 3760 0 3760 0 0 1880 0 1880 -3760 0 -3760 0 0
-1880z m2860 289 l0 -181 101 96 c96 92 103 96 145 96 24 0 44 -3 43 -7 0 -5
-36 -39 -79 -78 -44 -38 -79 -73 -80 -78 0 -4 41 -68 90 -142 50 -74 90 -137
90 -140 0 -3 -20 -5 -43 -5 l-44 0 -77 116 -77 116 -32 -25 c-31 -24 -32 -26
-35 -116 l-3 -92 -37 3 -37 3 -3 308 -2 307 40 0 40 0 0 -181z m440 -94 l0
-275 160 0 160 0 0 -35 0 -35 -202 2 -203 3 -3 308 -2 307 45 0 45 0 0 -275z
m450 0 l0 -275 165 0 165 0 0 -35 0 -35 -205 0 -205 0 0 310 0 310 40 0 40 0
0 -275z m401 15 c46 -143 87 -260 90 -260 4 0 10 11 13 24 3 13 42 130 87 260
l81 236 39 0 c22 0 39 -3 39 -7 0 -5 -48 -144 -107 -310 l-107 -303 -46 0 -46
0 -107 303 c-59 166 -107 305 -107 310 0 4 19 7 43 7 l43 0 85 -260z m604 7
c51 -137 95 -251 98 -253 2 -3 47 109 99 248 l95 253 56 3 57 3 0 -311 0 -311
-37 3 -38 3 -3 250 -3 250 -70 -185 c-136 -362 -116 -322 -156 -318 l-35 3
-94 250 -93 250 -3 -250 -3 -250 -37 -3 -38 -3 0 311 0 311 56 -3 56 -3 93
-248z m-2036 56 c0 -21 -35 -70 -133 -188 l-133 -160 138 -3 139 -3 0 -34 0
-35 -187 2 -188 3 -3 25 c-1 19 29 62 133 187 l135 162 -123 3 -122 3 -3 33
-3 32 175 0 176 0 -1 -27z m2781 -858 l0 -145 -1735 0 -1735 0 0 -145 0 -145
-870 0 -870 0 0 145 0 145 870 0 870 0 0 145 0 145 1735 0 1735 0 0 -145z
m1730 -580 l0 -145 -865 0 -865 0 0 145 0 145 865 0 865 0 0 -145z"/>
</g>
</svg>
