<?xml version="1.0" standalone="no"?>
<!DOCTYPE svg PUBLIC "-//W3C//DTD SVG 20010904//EN"
 "http://www.w3.org/TR/2001/REC-SVG-20010904/DTD/svg10.dtd">
<svg version="1.0" xmlns="http://www.w3.org/2000/svg"
 width="752.000000pt" height="376.000000pt" viewBox="0 0 752.000000 376.000000"
 preserveAspectRatio="xMidYMid meet">

<g transform="translate(0.000000,376.000000) scale(0.100000,-0.100000)"
fill="#000000" stroke="none">
<path d="M0 1880 l0 -1880 3760 0 3760 0 0 1880 0 1880 -3760 0 -3760 0 0
-1880z m2947 462 c50 -26 79 -62 93 -114 13 -48 8 -58 -33 -58 -29 0 -34 4
-47 42 -21 58 -57 81 -133 86 -53 3 -67 0 -97 -20 -58 -40 -66 -110 -16 -143
13 -9 70 -27 127 -41 178 -44 221 -78 227 -177 3 -52 0 -67 -20 -97 -29 -43
-111 -86 -182 -95 -67 -9 -167 16 -214 52 -37 28 -71 92 -72 136 0 25 3 27 39
27 37 0 39 -2 45 -38 11 -69 70 -106 171 -106 104 0 155 37 155 113 0 50 -48
81 -173 111 -175 40 -217 73 -217 168 0 87 36 134 128 168 53 20 166 13 219
-14z m-687 -164 l5 -177 100 94 c93 88 103 94 143 95 23 0 42 -3 42 -7 0 -5
-36 -41 -80 -81 -44 -40 -80 -78 -80 -83 0 -5 41 -70 90 -144 l90 -135 -47 0
-48 0 -75 115 -74 115 -33 -32 c-32 -31 -33 -34 -33 -115 l0 -83 -40 0 -40 0
0 303 c0 167 3 307 7 311 4 4 21 6 38 4 l30 -3 5 -177z m948 63 l3 -113 25 25
c45 45 146 54 212 18 45 -24 52 -57 52 -251 l0 -180 -35 0 -35 0 0 169 c0 151
-2 171 -19 192 -16 20 -28 24 -75 24 -49 0 -59 -4 -88 -33 l-33 -32 -3 -160
-3 -160 -40 0 -39 0 0 303 c0 167 3 307 7 311 4 4 21 6 38 4 l30 -3 3 -114z
m1462 -191 l0 -310 -35 0 c-31 0 -35 3 -35 27 l0 26 -22 -20 c-38 -34 -64 -43
-125 -43 -75 0 -127 29 -166 92 -58 94 -45 248 26 315 47 44 73 55 136 56 58
0 90 -11 129 -46 l22 -20 0 110 c0 60 3 113 7 116 3 4 19 7 35 7 l28 0 0 -310z
m165 260 c0 -45 0 -45 -35 -45 -32 0 -35 2 -38 33 -5 52 3 64 40 60 32 -3 33
-5 33 -48z m-953 -136 c46 -24 53 -47 58 -219 5 -158 5 -160 28 -163 19 -3 23
-9 20 -30 -2 -21 -9 -28 -32 -30 -47 -6 -75 6 -82 34 -6 23 -8 23 -23 10 -55
-49 -175 -62 -232 -23 -48 32 -65 83 -48 139 19 59 58 82 175 103 76 14 98 22
110 40 11 17 12 29 4 49 -24 65 -168 62 -193 -4 -10 -26 -16 -30 -49 -30 -37
0 -38 1 -32 28 9 37 30 69 58 87 52 34 178 39 238 9z m378 -13 c0 -38 -1 -39
-49 -51 -92 -22 -111 -63 -111 -241 l0 -129 -40 0 -40 0 2 223 3 222 33 3 32
3 0 -48 0 -48 30 36 c31 39 69 58 133 68 4 0 7 -17 7 -38z m972 12 c53 -26 62
-61 66 -255 l4 -178 -41 0 -41 0 0 169 c0 197 -5 210 -80 217 -54 6 -86 -9
-117 -55 -21 -32 -23 -44 -23 -182 l0 -149 -40 0 -40 0 2 223 3 222 33 3 c31
3 32 2 32 -33 l0 -37 35 31 c20 17 48 33 63 37 15 3 32 7 37 9 17 6 78 -7 107
-22z m370 17 c21 -6 51 -23 69 -37 l31 -26 -4 29 c-3 27 -1 29 32 29 l35 0 0
-240 c0 -236 0 -241 -25 -290 -34 -67 -87 -95 -183 -95 -101 0 -160 35 -182
108 -6 20 -3 22 34 22 29 0 41 -4 41 -14 0 -30 50 -56 109 -56 87 0 122 35
134 133 6 45 -4 64 -17 32 -7 -19 -82 -55 -116 -55 -43 0 -98 20 -131 47 -48
41 -69 95 -69 184 0 127 57 210 159 230 20 4 38 7 41 8 3 0 22 -4 42 -9z
m-3484 -30 c1 -19 -29 -62 -133 -187 -74 -90 -135 -165 -135 -168 0 -3 63 -5
140 -5 l140 0 0 -30 0 -30 -190 0 -190 0 1 28 c0 20 35 69 134 187 l133 160
-124 3 -124 3 0 28 c0 15 3 31 7 35 4 3 81 5 172 4 l166 -3 3 -25z m2720 -197
l2 -223 -40 0 -40 0 0 218 c0 120 3 222 7 226 4 4 21 6 38 4 l30 -3 3 -222z
m1242 -663 l0 -140 575 0 575 0 0 -145 0 -145 -575 0 -574 0 -3 142 -3 142
-2315 1 -2315 0 -3 143 -3 142 2321 0 2320 0 0 -140z m-4640 -575 l0 -145
-575 0 -575 0 0 145 0 145 575 0 575 0 0 -145z"/>
<path d="M4394 2112 c-81 -51 -87 -229 -9 -290 59 -46 142 -33 189 30 24 34
33 131 17 180 -27 83 -128 123 -197 80z"/>
<path d="M3772 1944 c-41 -7 -85 -20 -98 -29 -47 -31 -39 -96 14 -116 39 -15
107 -2 142 27 27 23 30 32 30 80 0 30 -3 54 -7 53 -5 -1 -41 -7 -81 -15z"/>
<path d="M5515 2121 c-77 -34 -105 -158 -58 -259 27 -58 102 -79 164 -46 81
41 93 223 21 288 -24 21 -96 30 -127 17z"/>
</g>
</svg>
