<svg width="40" height="40" viewBox="0 0 40 40" fill="none" xmlns="http://www.w3.org/2000/svg"><path d="M20.0002 36.6678C10.7952 36.6678 3.3335 29.2061 3.3335 20.0011C3.3335 10.7961 10.7952 3.33447 20.0002 3.33447C29.2052 3.33447 36.6668 10.7961 36.6668 20.0011C36.6668 29.2061 29.2052 36.6678 20.0002 36.6678ZM14.8168 21.9511L14.8385 21.9395L16.2885 26.7228C16.4752 27.2411 16.7318 27.3345 17.0435 27.2911C17.3568 27.2495 17.5218 27.0811 17.7268 26.8845L19.7068 24.9711L23.9568 28.1178C24.7335 28.5461 25.2918 28.3245 25.4852 27.3978L28.2468 14.3611C28.5518 13.1478 28.0185 12.6611 27.0768 13.0478L10.8552 19.3145C9.7485 19.7578 9.75516 20.3778 10.6552 20.6528L14.8168 21.9528V21.9511Z" fill="#212121"></path></svg>