<svg width="40" height="40" viewBox="0 0 40 40" fill="none" xmlns="http://www.w3.org/2000/svg"><path d="M16.7933 18.3345C17.7933 18.3345 18.6033 19.0845 18.585 20.0011C18.585 20.9178 17.795 21.6678 16.7933 21.6678C15.81 21.6678 15 20.9178 15 20.0011C15 19.0845 15.7917 18.3345 16.7933 18.3345ZM23.2067 18.3345C24.2083 18.3345 25 19.0845 25 20.0011C25 20.9178 24.2083 21.6678 23.2067 21.6678C22.2233 21.6678 21.415 20.9178 21.415 20.0011C21.415 19.0845 22.205 18.3345 23.2067 18.3345ZM31.485 3.33447C33.4233 3.33447 35 4.94447 35 6.93947V38.3345L31.315 35.0095L29.24 33.0495L27.045 30.9661L27.955 34.2045H8.515C6.57667 34.2045 5 32.5945 5 30.5995V6.93947C5 4.94447 6.57667 3.33447 8.515 3.33447H31.4833H31.485ZM24.8683 26.1895C28.6567 26.0678 30.115 23.5295 30.115 23.5295C30.115 17.8945 27.645 13.3261 27.645 13.3261C25.1783 11.4378 22.8283 11.4895 22.8283 11.4895L22.5883 11.7695C25.5033 12.6795 26.8567 13.9928 26.8567 13.9928C25.2651 13.0961 23.5111 12.525 21.6967 12.3128C20.5457 12.1828 19.3832 12.194 18.235 12.3461C18.1317 12.3461 18.045 12.3645 17.9433 12.3811C17.3433 12.4345 15.885 12.6611 14.0517 13.4845C13.4183 13.7811 13.04 13.9928 13.04 13.9928C13.04 13.9928 14.4633 12.6095 17.5483 11.6995L17.3767 11.4895C17.3767 11.4895 15.0283 11.4378 12.56 13.3278C12.56 13.3278 10.0917 17.8945 10.0917 23.5295C10.0917 23.5295 11.5317 26.0661 15.32 26.1895C15.32 26.1895 15.9533 25.4028 16.47 24.7378C14.2917 24.0711 13.47 22.6711 13.47 22.6711C13.47 22.6711 13.64 22.7945 13.9483 22.9695C13.965 22.9861 13.9817 23.0045 14.0167 23.0211C14.0683 23.0578 14.12 23.0745 14.1717 23.1095C14.6 23.3545 15.0283 23.5461 15.4217 23.7045C16.125 23.9845 16.965 24.2645 17.9433 24.4578C19.4089 24.7451 20.9157 24.7507 22.3833 24.4745C23.2382 24.3219 24.0722 24.0696 24.8683 23.7228C25.4683 23.4945 26.1367 23.1611 26.84 22.6895C26.84 22.6895 25.9833 24.1245 23.7367 24.7728C24.2517 25.4378 24.87 26.1895 24.87 26.1895H24.8683Z" fill="#212121"></path></svg>